<mxfile host="app.diagrams.net" modified="2023-02-16T08:55:10.108Z" agent="5.0 (Windows NT 10.0; Win64; x64) AppleWebKit/537.36 (KHTML, like Gecko) Chrome/109.0.0.0 Safari/537.36" version="20.6.2" etag="DeDllTPykxKTpVnoAuaS" type="github">
  <diagram id="bBgNs8tfFklZginsp3Xe" name="第 1 页">
    <mxGraphModel dx="1038" dy="1716" grid="1" gridSize="10" guides="1" tooltips="1" connect="1" arrows="1" fold="1" page="1" pageScale="1" pageWidth="827" pageHeight="1169" math="0" shadow="0">
      <root>
        <mxCell id="0" />
        <mxCell id="1" parent="0" />
        <mxCell id="950rIolmQSXV79BwhlsP-1" value="End" style="strokeWidth=2;html=1;shape=mxgraph.flowchart.terminator;whiteSpace=wrap;" vertex="1" parent="1">
          <mxGeometry x="250" y="525" width="100" height="60" as="geometry" />
        </mxCell>
        <mxCell id="950rIolmQSXV79BwhlsP-20" style="edgeStyle=orthogonalEdgeStyle;rounded=0;orthogonalLoop=1;jettySize=auto;html=1;fontFamily=Tahoma;" edge="1" parent="1" source="950rIolmQSXV79BwhlsP-2" target="950rIolmQSXV79BwhlsP-18">
          <mxGeometry relative="1" as="geometry" />
        </mxCell>
        <mxCell id="950rIolmQSXV79BwhlsP-2" value="Start" style="strokeWidth=2;html=1;shape=mxgraph.flowchart.start_1;whiteSpace=wrap;" vertex="1" parent="1">
          <mxGeometry x="650" y="-330" width="100" height="60" as="geometry" />
        </mxCell>
        <mxCell id="950rIolmQSXV79BwhlsP-6" style="edgeStyle=orthogonalEdgeStyle;rounded=0;orthogonalLoop=1;jettySize=auto;html=1;fontFamily=Tahoma;" edge="1" parent="1" source="950rIolmQSXV79BwhlsP-4" target="950rIolmQSXV79BwhlsP-5">
          <mxGeometry relative="1" as="geometry" />
        </mxCell>
        <mxCell id="950rIolmQSXV79BwhlsP-7" value="是" style="edgeLabel;html=1;align=center;verticalAlign=middle;resizable=0;points=[];fontFamily=Tahoma;" vertex="1" connectable="0" parent="950rIolmQSXV79BwhlsP-6">
          <mxGeometry x="0.1614" y="3" relative="1" as="geometry">
            <mxPoint as="offset" />
          </mxGeometry>
        </mxCell>
        <mxCell id="950rIolmQSXV79BwhlsP-9" value="否" style="edgeStyle=orthogonalEdgeStyle;rounded=0;orthogonalLoop=1;jettySize=auto;html=1;fontFamily=Tahoma;" edge="1" parent="1" source="950rIolmQSXV79BwhlsP-4" target="950rIolmQSXV79BwhlsP-8">
          <mxGeometry relative="1" as="geometry" />
        </mxCell>
        <mxCell id="950rIolmQSXV79BwhlsP-4" value="是否需要nexthop" style="strokeWidth=2;html=1;shape=mxgraph.flowchart.decision;whiteSpace=wrap;fontFamily=Tahoma;" vertex="1" parent="1">
          <mxGeometry x="225" y="170" width="150" height="80" as="geometry" />
        </mxCell>
        <mxCell id="950rIolmQSXV79BwhlsP-12" style="edgeStyle=orthogonalEdgeStyle;rounded=0;orthogonalLoop=1;jettySize=auto;html=1;entryX=1;entryY=0.5;entryDx=0;entryDy=0;fontFamily=Tahoma;" edge="1" parent="1" source="950rIolmQSXV79BwhlsP-5" target="950rIolmQSXV79BwhlsP-8">
          <mxGeometry relative="1" as="geometry">
            <Array as="points">
              <mxPoint x="590" y="360" />
            </Array>
          </mxGeometry>
        </mxCell>
        <mxCell id="950rIolmQSXV79BwhlsP-13" value="是" style="edgeLabel;html=1;align=center;verticalAlign=middle;resizable=0;points=[];fontFamily=Tahoma;" vertex="1" connectable="0" parent="950rIolmQSXV79BwhlsP-12">
          <mxGeometry x="-0.8153" y="-5" relative="1" as="geometry">
            <mxPoint x="5" y="19" as="offset" />
          </mxGeometry>
        </mxCell>
        <mxCell id="950rIolmQSXV79BwhlsP-14" value="否" style="edgeStyle=orthogonalEdgeStyle;rounded=0;orthogonalLoop=1;jettySize=auto;html=1;fontFamily=Tahoma;" edge="1" parent="1" source="950rIolmQSXV79BwhlsP-5" target="950rIolmQSXV79BwhlsP-16">
          <mxGeometry relative="1" as="geometry">
            <mxPoint x="760" y="210" as="targetPoint" />
          </mxGeometry>
        </mxCell>
        <mxCell id="950rIolmQSXV79BwhlsP-5" value="nexthop是否存在" style="strokeWidth=2;html=1;shape=mxgraph.flowchart.decision;whiteSpace=wrap;fontFamily=Tahoma;" vertex="1" parent="1">
          <mxGeometry x="520" y="170" width="150" height="80" as="geometry" />
        </mxCell>
        <mxCell id="950rIolmQSXV79BwhlsP-10" style="edgeStyle=orthogonalEdgeStyle;rounded=0;orthogonalLoop=1;jettySize=auto;html=1;fontFamily=Tahoma;" edge="1" parent="1" source="950rIolmQSXV79BwhlsP-8" target="950rIolmQSXV79BwhlsP-1">
          <mxGeometry relative="1" as="geometry" />
        </mxCell>
        <mxCell id="950rIolmQSXV79BwhlsP-8" value="调用sai创建my sid" style="rounded=1;whiteSpace=wrap;html=1;absoluteArcSize=1;arcSize=14;strokeWidth=2;fontFamily=Tahoma;" vertex="1" parent="1">
          <mxGeometry x="240" y="330" width="120" height="60" as="geometry" />
        </mxCell>
        <mxCell id="950rIolmQSXV79BwhlsP-16" value="将 my sid 信息加入 neightable" style="rounded=1;whiteSpace=wrap;html=1;absoluteArcSize=1;arcSize=14;strokeWidth=2;fontFamily=Tahoma;" vertex="1" parent="1">
          <mxGeometry x="750" y="180" width="120" height="60" as="geometry" />
        </mxCell>
        <mxCell id="950rIolmQSXV79BwhlsP-21" value="否" style="edgeStyle=orthogonalEdgeStyle;rounded=0;orthogonalLoop=1;jettySize=auto;html=1;fontFamily=Tahoma;" edge="1" parent="1" source="950rIolmQSXV79BwhlsP-18" target="950rIolmQSXV79BwhlsP-19">
          <mxGeometry relative="1" as="geometry" />
        </mxCell>
        <mxCell id="950rIolmQSXV79BwhlsP-23" value="是" style="edgeStyle=orthogonalEdgeStyle;rounded=0;orthogonalLoop=1;jettySize=auto;html=1;fontFamily=Tahoma;" edge="1" parent="1" source="950rIolmQSXV79BwhlsP-18" target="950rIolmQSXV79BwhlsP-22">
          <mxGeometry relative="1" as="geometry" />
        </mxCell>
        <mxCell id="950rIolmQSXV79BwhlsP-18" value="是否my sid operation" style="strokeWidth=2;html=1;shape=mxgraph.flowchart.decision;whiteSpace=wrap;fontFamily=Tahoma;" vertex="1" parent="1">
          <mxGeometry x="625" y="-230" width="150" height="80" as="geometry" />
        </mxCell>
        <mxCell id="950rIolmQSXV79BwhlsP-28" style="edgeStyle=orthogonalEdgeStyle;rounded=0;orthogonalLoop=1;jettySize=auto;html=1;fontFamily=Tahoma;" edge="1" parent="1" source="950rIolmQSXV79BwhlsP-19" target="950rIolmQSXV79BwhlsP-26">
          <mxGeometry relative="1" as="geometry" />
        </mxCell>
        <mxCell id="950rIolmQSXV79BwhlsP-19" value="是否 sid list operation" style="strokeWidth=2;html=1;shape=mxgraph.flowchart.decision;whiteSpace=wrap;fontFamily=Tahoma;" vertex="1" parent="1">
          <mxGeometry x="910" y="-230" width="150" height="80" as="geometry" />
        </mxCell>
        <mxCell id="950rIolmQSXV79BwhlsP-24" style="edgeStyle=orthogonalEdgeStyle;rounded=0;orthogonalLoop=1;jettySize=auto;html=1;fontFamily=Tahoma;" edge="1" parent="1" source="950rIolmQSXV79BwhlsP-22" target="950rIolmQSXV79BwhlsP-4">
          <mxGeometry relative="1" as="geometry" />
        </mxCell>
        <mxCell id="950rIolmQSXV79BwhlsP-25" value="是" style="edgeLabel;html=1;align=center;verticalAlign=middle;resizable=0;points=[];fontFamily=Tahoma;" vertex="1" connectable="0" parent="950rIolmQSXV79BwhlsP-24">
          <mxGeometry x="-0.5787" y="1" relative="1" as="geometry">
            <mxPoint as="offset" />
          </mxGeometry>
        </mxCell>
        <mxCell id="950rIolmQSXV79BwhlsP-22" value="是否是SET" style="strokeWidth=2;html=1;shape=mxgraph.flowchart.decision;whiteSpace=wrap;fontFamily=Tahoma;" vertex="1" parent="1">
          <mxGeometry x="410" y="-230" width="150" height="80" as="geometry" />
        </mxCell>
        <mxCell id="950rIolmQSXV79BwhlsP-26" value="是否是SET" style="strokeWidth=2;html=1;shape=mxgraph.flowchart.decision;whiteSpace=wrap;fontFamily=Tahoma;" vertex="1" parent="1">
          <mxGeometry x="1170" y="-230" width="150" height="80" as="geometry" />
        </mxCell>
        <mxCell id="950rIolmQSXV79BwhlsP-29" value="将 my sid 信息加入 neightable" style="rounded=1;whiteSpace=wrap;html=1;absoluteArcSize=1;arcSize=14;strokeWidth=2;fontFamily=Tahoma;" vertex="1" parent="1">
          <mxGeometry x="1181" y="60" width="120" height="60" as="geometry" />
        </mxCell>
      </root>
    </mxGraphModel>
  </diagram>
</mxfile>
